<svg width="820" height="418" viewBox="0 0 820 418" fill="none" xmlns="http://www.w3.org/2000/svg">
<path d="M1 38.5V1H230.5V38.5C186.9 29.3 169.333 38.6667 166 44.5L389.5 342V80C395.5 32 330.333 32.3333 297 38.5V1H526.5V38.5C487.7 30.1 463.667 39 456.5 44.5L685.5 342V80C679.1 36 618.167 34 588.5 38.5V1H818V40.5C743.2 25.7 722.833 60.6667 722 80V342C728.4 386.4 789.333 385.833 819 380V417H588.5V380C620.5 388 650.5 379 661.5 373.5L430 80V342C436.8 380.8 496.167 382.5 525 378.5V417H295.5V378C328.7 384.8 356.667 377.833 366.5 373.5L135.5 75V342C142.7 383.6 202.5 384.667 231.5 380V417H2V380C77.2 391.6 97 359.5 97.5 342V75C93.9 33 31.6667 33.1667 1 38.5Z" fill="#D2E216" stroke="black"/>
</svg>
